<svg width="90" height="90" viewBox="0 0 90 90" fill="none" xmlns="http://www.w3.org/2000/svg">
<path fill-rule="evenodd" clip-rule="evenodd" d="M41.1369 9.37614C42.0145 5.49091 47.5504 5.49091 48.428 9.37614L49.2787 13.1425C49.7458 15.2102 51.4133 16.3334 52.8078 16.7316C54.9623 17.3467 57.0154 18.2037 58.9361 19.2718C60.2051 19.9775 62.181 20.3636 63.9759 19.2302L62.3741 16.6936L63.9759 19.2302L67.2407 17.1686C70.6085 15.0419 74.523 18.9564 72.3963 22.3242L70.3346 25.589C69.2012 27.3838 69.5874 29.3597 70.2931 30.6287C71.3613 32.5495 72.2183 34.6026 72.8334 36.7572C73.2316 38.1517 74.3548 39.8191 76.4224 40.2861L80.1887 41.1369C84.074 42.0145 84.074 47.5504 80.1887 48.428L76.4224 49.2787C74.3548 49.7458 73.2316 51.4131 72.8335 52.8076C72.2183 54.9623 71.3613 57.0155 70.2931 58.9363C69.5873 60.2053 69.2013 62.1811 70.3346 63.9759L72.3963 67.2407C74.523 70.6085 70.6085 74.523 67.2407 72.3963L63.9759 70.3346C62.1811 69.2013 60.2053 69.5874 58.9363 70.2931C57.0155 71.3613 54.9623 72.2183 52.8076 72.8335C51.4131 73.2316 49.7458 74.3548 49.2787 76.4224L48.428 80.1887C47.5504 84.074 42.0145 84.074 41.1369 80.1887L40.2861 76.4224C39.8191 74.3548 38.1517 73.2316 36.7572 72.8334C34.6026 72.2183 32.5494 71.3613 30.6287 70.2931C29.3597 69.5873 27.3838 69.2013 25.589 70.3346L22.3242 72.3963C18.9564 74.523 15.0419 70.6085 17.1686 67.2407L19.2302 63.9759C20.3636 62.181 19.9775 60.2051 19.2718 58.9361C18.2037 57.0154 17.3467 54.9623 16.7316 52.8078C16.3334 51.4133 15.2102 49.7458 13.1425 49.2787L12.4815 52.205L13.1425 49.2787L9.37614 48.428C5.49091 47.5504 5.49091 42.0145 9.37614 41.1369L13.1425 40.2861C15.2102 39.819 16.3335 38.1516 16.7316 36.757C17.3467 34.6026 18.2037 32.5496 19.2718 30.6289C19.9775 29.3599 20.3637 27.3839 19.2302 25.589L17.1686 22.3242C15.0419 18.9564 18.9564 15.0419 22.3242 17.1686L25.5889 19.2302C27.3839 20.3637 29.3599 19.9775 30.6289 19.2718C32.5496 18.2037 34.6026 17.3467 36.757 16.7316C38.1516 16.3334 39.819 15.2102 40.2861 13.1425L41.1369 9.37614L38.2106 8.71514L41.1369 9.37614ZM38.2106 8.71514L37.3599 12.4815C37.2037 13.1726 36.6148 13.6524 35.9334 13.8469C33.5552 14.5259 31.2895 15.4717 29.1709 16.6499C28.5497 16.9954 27.7917 17.0731 27.1907 16.6936L23.926 14.632C17.8548 10.7982 10.7982 17.8548 14.632 23.926L16.6936 27.1907C17.0731 27.7917 16.9954 28.5497 16.6499 29.1709C15.4717 31.2895 14.5259 33.5552 13.8469 35.9334C13.6524 36.6148 13.1726 37.2037 12.4815 37.3599L8.71514 38.2106C1.71124 39.7927 1.71125 49.7722 8.71514 51.3543L12.4815 52.205C13.1726 52.3611 13.6523 52.9501 13.8468 53.6314C14.5258 56.0097 15.4717 58.2754 16.65 60.3941C16.9954 61.0153 17.0731 61.7732 16.6936 62.3741L14.632 65.6389C10.7982 71.7101 17.8548 78.7667 23.926 74.9328L27.1907 72.8712C27.7917 72.4918 28.5495 72.5695 29.1706 72.9149C31.2894 74.0932 33.5552 75.0391 35.9336 75.7182C36.6149 75.9127 37.2038 76.3923 37.3599 77.0834L38.2106 80.8497C39.7927 87.8536 49.7722 87.8536 51.3543 80.8497L52.205 77.0834C52.3611 76.3924 52.95 75.9127 53.6312 75.7182C56.0097 75.0392 58.2755 74.0933 60.3944 72.9149C61.0154 72.5695 61.7733 72.4918 62.3741 72.8712L65.6389 74.9328C71.7101 78.7667 78.7666 71.7101 74.9328 65.6389L72.8712 62.3741C72.4918 61.7733 72.5695 61.0154 72.9149 60.3944C74.0933 58.2755 75.0392 56.0097 75.7182 53.6312C75.9127 52.95 76.3924 52.3611 77.0834 52.205L80.8497 51.3543C87.8536 49.7722 87.8536 39.7927 80.8497 38.2106L77.0834 37.3599C76.3923 37.2038 75.9127 36.6149 75.7182 35.9336C75.0391 33.5552 74.0932 31.2894 72.9149 29.1706C72.5695 28.5495 72.4918 27.7916 72.8712 27.1907L74.9328 23.926C78.7667 17.8548 71.7101 10.7982 65.6389 14.632L62.3741 16.6936C61.7732 17.0731 61.0153 16.9954 60.3941 16.65C58.2754 15.4717 56.0097 14.5258 53.6314 13.8468C52.9501 13.6523 52.3611 13.1726 52.205 12.4815L51.3543 8.71514C49.7722 1.71124 39.7927 1.71125 38.2106 8.71514ZM69 45C69 58.2548 58.2548 69 45 69C31.7452 69 21 58.2548 21 45C21 31.7452 31.7452 21 45 21C58.2548 21 69 31.7452 69 45ZM45 66C56.598 66 66 56.598 66 45C66 33.402 56.598 24 45 24C33.402 24 24 33.402 24 45C24 56.598 33.402 66 45 66ZM57.6138 44.8069C57.6138 51.88 51.8799 57.6139 44.8069 57.6139C37.7338 57.6139 31.9999 51.88 31.9999 44.8069C31.9999 37.7339 37.7338 32 44.8069 32C51.8799 32 57.6138 37.7339 57.6138 44.8069ZM44.8069 54.6139C50.2231 54.6139 54.6138 50.2231 54.6138 44.8069C54.6138 39.3907 50.2231 35 44.8069 35C39.3907 35 34.9999 39.3907 34.9999 44.8069C34.9999 50.2231 39.3907 54.6139 44.8069 54.6139Z" fill="#0F70E7"/>
</svg>
