<svg width="90" height="90" viewBox="0 0 90 90" fill="none" xmlns="http://www.w3.org/2000/svg">
<path fill-rule="evenodd" clip-rule="evenodd" d="M50.6773 4.59412C50.9857 3.87915 50.6958 3.04709 50.0099 2.6786C49.3239 2.31011 48.4701 2.52774 48.0442 3.17961L18.9642 47.6926L18.9614 47.6968C18.8946 47.7977 18.8286 47.8988 18.7634 48H17.4131C12.7003 48 9.82731 53.184 12.3253 57.1803L14.5311 60.7091C13.6553 75.4857 25.8033 89.5 42.9977 89.5C60.9345 89.5 73.1682 74.3687 71.3335 59.134L72.5479 57.2467C75.1172 53.2538 72.2504 48 67.5022 48H67.239C66.8485 47.3992 66.4297 46.8048 65.9821 46.2178L56.7481 34.1094C49.4961 24.6001 46.1946 14.9862 50.6773 4.59412ZM69.1699 51.5005C68.7329 51.2071 68.2071 51.0239 67.6204 51.0022C67.5812 51.0007 67.5419 51 67.5022 51H65.5442H20.4608H17.4131C17.2963 51 17.1818 51.0064 17.0698 51.0187C14.921 51.2554 13.6821 53.691 14.8692 55.5901L15.2204 56.152L17.3095 59.4941C17.4109 59.6565 17.516 59.8146 17.6244 59.9686C21.5194 65.5011 29.7829 65.6544 33.8515 60.1097L35.9494 57.2507C37.3976 55.277 39.6993 54.1111 42.1473 54.1111C44.5578 54.1111 46.8287 55.2417 48.2816 57.1651L50.8515 60.5673C55.0428 66.116 63.4775 65.7988 67.2403 59.9511L68.182 58.4877L70.0251 55.6233C70.2046 55.3443 70.331 55.053 70.4092 54.7583C70.7412 53.5075 70.2045 52.1951 69.1699 51.5005ZM68.4579 63.2836C63.1275 69.1932 53.464 69.0032 48.4576 62.3755L45.8877 58.9733C45.0018 57.8005 43.6171 57.1111 42.1473 57.1111C40.6546 57.1111 39.2512 57.822 38.3681 59.0255L36.2702 61.8845C31.7232 68.0812 23.1457 68.8034 17.611 64.3143C18.7013 76.0745 28.8291 86.5 42.9977 86.5C57.6805 86.5 67.8712 75.4017 68.4579 63.2836ZM22.3468 48H63.5684L54.3626 35.9286C48.7303 28.5431 45.0853 20.6732 45.7012 12.2512L22.3468 48ZM28.8943 68.9864C29.4541 68.3757 30.4029 68.3345 31.0136 68.8943C37.2296 74.5923 46.7704 74.5923 52.9864 68.8943C53.5971 68.3345 54.5459 68.3757 55.1057 68.9864C55.6655 69.5971 55.6243 70.5459 55.0136 71.1057C47.6506 77.8552 36.3494 77.8552 28.9864 71.1057C28.3757 70.5459 28.3345 69.5971 28.8943 68.9864ZM19.8154 59.507C16.2238 57.0496 18.3908 51.4258 22.7027 52.0138C23.5235 52.1257 24.0982 52.8818 23.9863 53.7027C23.8743 54.5235 23.1182 55.0982 22.2973 54.9862C21.1207 54.8258 20.5293 56.3605 21.5094 57.031L21.847 57.262C22.5307 57.7298 22.7058 58.6633 22.238 59.347C21.7702 60.0307 20.8367 60.2058 20.153 59.738L19.8154 59.507ZM56.7027 52.0138C52.3908 51.4258 50.2238 57.0496 53.8154 59.507L54.153 59.738C54.8367 60.2058 55.7702 60.0307 56.238 59.347C56.7058 58.6633 56.5307 57.7298 55.847 57.262L55.5094 57.031C54.5293 56.3605 55.1207 54.8258 56.2973 54.9862C57.1182 55.0982 57.8743 54.5235 57.9863 53.7027C58.0982 52.8818 57.5235 52.1257 56.7027 52.0138Z" fill="#0F70E7"/>
</svg>
