<svg width="90" height="90" viewBox="0 0 90 90" fill="none" xmlns="http://www.w3.org/2000/svg">
<path fill-rule="evenodd" clip-rule="evenodd" d="M43.7413 3.89593C43.8272 3.5153 43.9912 3.32915 44.1386 3.22003C44.3127 3.09116 44.5662 3 44.8621 3C45.1581 3 45.4116 3.09116 45.5857 3.22003C45.7331 3.32915 45.897 3.5153 45.983 3.89593C46.5071 6.21591 48.4914 7.2146 49.5971 7.58094C50.2907 7.81079 50.9623 8.08993 51.6075 8.41435C52.6493 8.93812 54.7606 9.63665 56.7736 8.36553C57.1035 8.15718 57.3511 8.14146 57.5325 8.16854C57.7467 8.20052 57.9904 8.3153 58.1997 8.52459C58.409 8.73388 58.5238 8.97758 58.5557 9.19182C58.5828 9.37322 58.5671 9.62075 58.3587 9.95069C57.0876 11.9636 57.7862 14.075 58.3099 15.1168C58.6343 15.762 58.9135 16.4335 59.1433 17.1272C59.5096 18.2328 60.5083 20.2172 62.8283 20.7413C63.209 20.8272 63.3951 20.9912 63.5042 21.1386C63.6331 21.3127 63.7243 21.5662 63.7243 21.8621C63.7243 22.1581 63.6331 22.4116 63.5042 22.5857C63.3951 22.7331 63.209 22.897 62.8283 22.983C60.5083 23.5071 59.5096 25.4915 59.1433 26.5971C58.9135 27.2908 58.6343 27.9622 58.3099 28.6075C57.7862 29.6492 57.0876 31.7606 58.3587 33.7736C58.5671 34.1035 58.5828 34.3511 58.5557 34.5325C58.5238 34.7467 58.409 34.9904 58.1997 35.1997C57.9904 35.409 57.7467 35.5237 57.5325 35.5557C57.3511 35.5828 57.1035 35.5671 56.7736 35.3587C54.7606 34.0876 52.6492 34.7862 51.6075 35.3099C50.9622 35.6343 50.2908 35.9134 49.5971 36.1433C48.4915 36.5096 46.5071 37.5083 45.983 39.8283C45.897 40.209 45.7331 40.3951 45.5857 40.5042C45.4116 40.6331 45.1581 40.7243 44.8621 40.7243C44.5662 40.7243 44.3127 40.6331 44.1386 40.5042C43.9912 40.3951 43.8272 40.209 43.7413 39.8283C43.2172 37.5083 41.2328 36.5096 40.1272 36.1433C39.4335 35.9135 38.762 35.6343 38.1168 35.3099C37.075 34.7861 34.9636 34.0876 32.9507 35.3587C32.6208 35.5671 32.3732 35.5828 32.1918 35.5557C31.9776 35.5237 31.7339 35.409 31.5246 35.1997C31.3153 34.9904 31.2005 34.7467 31.1685 34.5325C31.1415 34.3511 31.1572 34.1035 31.3655 33.7736C32.6367 31.7606 31.9381 29.6493 31.4144 28.6075C31.0899 27.9623 30.8108 27.2907 30.5809 26.5971C30.2146 25.4914 29.2159 23.5071 26.8959 22.983C26.5153 22.897 26.3292 22.7331 26.22 22.5857C26.0912 22.4116 26 22.1581 26 21.8621C26 21.5662 26.0912 21.3127 26.22 21.1386C26.3292 20.9912 26.5153 20.8272 26.8959 20.7413C29.2159 20.2172 30.2146 18.2328 30.5809 17.1272C30.8108 16.4335 31.0899 15.762 31.4144 15.1167C31.9381 14.075 32.6366 11.9636 31.3655 9.95069C31.1572 9.62075 31.1415 9.37322 31.1685 9.19182C31.2005 8.97758 31.3153 8.73388 31.5246 8.52459C31.7339 8.3153 31.9776 8.20052 32.1918 8.16854C32.3732 8.14146 32.6208 8.15718 32.9507 8.36553C34.9636 9.63664 37.075 8.93813 38.1167 8.41436C38.762 8.08993 39.4335 7.81078 40.1272 7.58093C41.2328 7.21459 43.2172 6.2159 43.7413 3.89593ZM27.7332 16.1836C27.4845 16.9343 27.0063 17.6407 26.2349 17.815C21.9217 18.7893 21.9217 24.935 26.2349 25.9093C27.0063 26.0835 27.4845 26.7899 27.7332 27.5406C28.0094 28.3741 28.3446 29.1805 28.7341 29.9551C29.0899 30.6629 29.2519 31.5019 28.8289 32.1718C26.468 35.9106 30.8136 40.2563 34.5525 37.8953C35.2223 37.4723 36.0614 37.6343 36.7692 37.9902C37.5437 38.3796 38.3502 38.7149 39.1836 38.991C39.9343 39.2398 40.6407 39.7179 40.815 40.4893C41.7893 44.8026 47.935 44.8026 48.9093 40.4893C49.0835 39.7179 49.79 39.2398 50.5407 38.991C51.3741 38.7149 52.1805 38.3796 52.955 37.9902C53.6629 37.6343 54.5019 37.4723 55.1718 37.8953C58.9106 40.2563 63.2563 35.9106 60.8953 32.1718C60.4723 31.5019 60.6343 30.6629 60.9902 29.955C61.3796 29.1805 61.7149 28.3741 61.991 27.5407C62.2398 26.79 62.7179 26.0835 63.4893 25.9093C67.8026 24.935 67.8026 18.7893 63.4893 17.815C62.7179 17.6407 62.2398 16.9343 61.991 16.1836C61.7149 15.3502 61.3796 14.5437 60.9902 13.7692C60.6344 13.0614 60.4723 12.2223 60.8953 11.5525C63.2563 7.81363 58.9106 3.46795 55.1718 5.82894C54.5019 6.25193 53.6629 6.08992 52.9551 5.73405C52.1805 5.34462 51.3741 5.00935 50.5406 4.7332C49.7899 4.48446 49.0835 4.00633 48.9093 3.23493C47.935 -1.07831 41.7893 -1.07831 40.815 3.23493C40.6407 4.00633 39.9343 4.48445 39.1836 4.73318C38.3502 5.00934 37.5437 5.34462 36.7691 5.73406C36.0613 6.08992 35.2223 6.25193 34.5525 5.82894C30.8136 3.46795 26.468 7.81363 28.8289 11.5525C29.2519 12.2223 29.0899 13.0613 28.7341 13.7691C28.3446 14.5437 28.0093 15.3502 27.7332 16.1836ZM53 22.5C53 27.1944 49.1944 31 44.5 31C39.8056 31 36 27.1944 36 22.5C36 17.8056 39.8056 14 44.5 14C49.1944 14 53 17.8056 53 22.5ZM44.5 28C47.5376 28 50 25.5376 50 22.5C50 19.4624 47.5376 17 44.5 17C41.4624 17 39 19.4624 39 22.5C39 25.5376 41.4624 28 44.5 28ZM35.0032 44.4802L29.493 47.9241L35.6205 61.0546L42.171 55.2319L35.0032 44.4802ZM36.4221 41.2002L44.1968 52.8622L51.9714 41.2002C52.2714 40.7502 52.8748 40.6203 53.3335 40.9069L61.9914 46.3181C62.4002 46.5736 62.5658 47.0817 62.3946 47.5255L65.4762 45.9623C72.1285 42.588 80 47.4215 80 54.8806V72.6975C80 77.1839 77.012 81.1213 72.691 82.3286L50.6356 88.4911C47.0598 90.1299 42.9402 90.1299 39.3644 88.4911L17.309 82.3286C12.988 81.1213 10 77.1839 10 72.6975V55.1013C10 47.5897 17.9723 42.7598 24.6302 46.2378L25.9599 46.9324C26.0193 46.6853 26.1723 46.4618 26.4022 46.3181L35.0601 40.9069C35.5187 40.6203 36.1221 40.7502 36.4221 41.2002ZM48.741 85.9056L46.8837 86.4245C45.6515 86.7688 44.3485 86.7688 43.1163 86.4245L41.1695 85.8806L42.7238 67.4088C42.7861 67.4117 42.8488 67.4132 42.9118 67.4132H46.0588C46.1755 67.4132 46.291 67.4082 46.4051 67.3984L48.741 85.9056ZM51.6618 85.0895L71.8837 79.4392C74.9084 78.5941 77 75.838 77 72.6975V54.8806C77 49.6592 71.4899 46.2758 66.8334 48.6378L60.3413 51.9309L54.3565 64.7554C54.0735 65.3619 53.2862 65.5246 52.786 65.08L50.0588 62.6558V63.4132C50.0588 64.3291 49.751 65.1731 49.2332 65.8474L51.6618 85.0895ZM46.8686 64C46.9883 63.8352 47.0588 63.6324 47.0588 63.4132V61.7391C47.0588 61.4739 46.9535 61.2196 46.7659 61.032L45.1924 59.4585C44.8019 59.068 44.1687 59.068 43.7782 59.4585L42.2047 61.032C42.0171 61.2196 41.9118 61.4739 41.9118 61.7391V63.4132C41.9118 63.6324 41.9823 63.8352 42.102 64H46.8686ZM39.8344 65.9686C39.2582 65.2756 38.9118 64.3848 38.9118 63.4132V62.1429L35.6076 65.08C35.1074 65.5246 34.32 65.3619 34.037 64.7554L27.7309 51.2423L23.2411 48.8969C18.5806 46.4623 13 49.8432 13 55.1013V72.6975C13 75.838 15.0916 78.5941 18.1163 79.4392L38.2281 85.0587L39.8344 65.9686ZM53.3903 44.4802L58.9006 47.9241L52.773 61.0546L46.2225 55.2319L53.3903 44.4802Z" fill="#0F70E7"/>
</svg>
