<?xml version="1.0" encoding="UTF-8"?>
<svg width="379px" height="84px" viewBox="0 0 379 84" version="1.1" xmlns="http://www.w3.org/2000/svg" xmlns:xlink="http://www.w3.org/1999/xlink">
    <!-- Generator: Sketch 52.3 (67297) - http://www.bohemiancoding.com/sketch -->
    <title>logo-bitmob-blue</title>
    <desc>Created with Sketch.</desc>
    <g id="Brand" stroke="none" stroke-width="1" fill="none" fill-rule="evenodd">
        <g id="brand---logo---lockup3" transform="translate(-227.000000, -905.000000)" fill="#002CFC">
            <g id="logo-bitmob-blue" transform="translate(227.000000, 905.000000)">
                <path d="M123.873,26.088 C136.511,26.088 146.835,36.323 146.835,49.05 C146.835,61.688 136.511,72.012 123.873,72.012 C117.91,72.012 112.481,69.609 108.476,65.871 L108.476,69.52 C108.476,70.588 107.853,71.3 106.696,71.3 L102.958,71.3 C101.712,71.3 101,70.588 101,69.342 L101,10.958 C101,9.712 101.712,9 102.958,9 L107.853,9 C109.099,9 109.811,9.712 109.811,10.958 L109.811,31.428 C113.46,28.135 118.444,26.088 123.873,26.088 Z M123.784,62.934 C131.438,62.934 137.757,56.704 137.757,49.05 C137.757,41.307 131.438,35.077 123.784,35.077 C116.13,35.077 109.811,41.307 109.811,49.05 C109.811,56.704 116.13,62.934 123.784,62.934 Z M164.847,17.544 C164.847,20.748 162.622,22.973 159.329,22.973 C156.481,22.973 153.9,20.748 153.9,17.544 C153.9,14.696 156.481,12.115 159.329,12.115 C162.622,12.115 164.847,14.696 164.847,17.544 Z M161.821,71.3 L156.837,71.3 C155.68,71.3 154.879,70.588 154.879,69.342 L154.879,28.758 C154.879,27.512 155.68,26.8 156.837,26.8 L161.821,26.8 C163.067,26.8 163.779,27.512 163.779,28.758 L163.779,69.342 C163.779,70.588 163.067,71.3 161.821,71.3 Z M195.052,62.311 C196.298,62.311 197.01,63.112 197.01,64.269 L197.01,69.342 C197.01,70.588 196.298,71.3 195.052,71.3 L189.356,71.3 C180.011,71.3 173.692,65.248 173.692,55.369 L173.692,14.607 C173.692,13.361 174.404,12.649 175.65,12.649 L180.634,12.649 C181.88,12.649 182.592,13.361 182.592,14.607 L182.592,26.8 L195.408,26.8 C196.565,26.8 197.188,27.512 197.188,28.58 L197.188,32.852 C197.188,34.009 196.565,34.632 195.408,34.632 L182.592,34.632 L182.592,55.458 C182.592,59.285 185.618,62.311 189.534,62.311 L195.052,62.311 Z M252.491,26.088 C262.815,26.088 271.359,34.543 271.359,44.956 L271.359,69.342 C271.359,70.588 270.558,71.3 269.401,71.3 L264.328,71.3 C263.082,71.3 262.37,70.588 262.37,69.342 L262.37,44.956 C262.37,39.438 257.92,34.988 252.402,34.988 C246.884,34.988 242.434,39.438 242.434,44.956 L242.434,69.342 C242.434,70.588 241.633,71.3 240.476,71.3 L235.492,71.3 C234.246,71.3 233.534,70.588 233.534,69.342 L233.534,44.956 C233.534,39.438 228.995,34.988 223.477,34.988 C217.959,34.988 213.509,39.438 213.509,44.956 L213.509,69.342 C213.509,70.588 212.797,71.3 211.551,71.3 L206.567,71.3 C205.321,71.3 204.609,70.588 204.609,69.342 L204.609,28.758 C204.609,27.512 205.321,26.8 206.567,26.8 L210.216,26.8 C211.284,26.8 211.996,27.512 211.996,28.58 L211.996,30.983 C214.577,28.135 218.849,26.088 223.833,26.088 C229.707,26.088 234.602,28.847 237.895,33.119 C241.277,28.847 246.528,26.088 252.491,26.088 Z M301.653,26.088 C314.291,26.088 324.615,36.412 324.615,49.05 C324.615,61.688 314.291,72.012 301.653,72.012 C289.015,72.012 278.691,61.688 278.691,49.05 C278.691,36.412 289.015,26.088 301.653,26.088 Z M301.653,35.077 C293.91,35.077 287.591,41.307 287.591,49.05 C287.591,56.793 293.91,63.023 301.653,63.023 C309.396,63.023 315.537,56.793 315.537,49.05 C315.537,41.307 309.396,35.077 301.653,35.077 Z M355.71,26.088 C368.348,26.088 378.672,36.323 378.672,49.05 C378.672,61.688 368.348,72.012 355.71,72.012 C349.747,72.012 344.318,69.609 340.313,65.871 L340.313,69.52 C340.313,70.588 339.69,71.3 338.533,71.3 L334.795,71.3 C333.549,71.3 332.837,70.588 332.837,69.342 L332.837,10.958 C332.837,9.712 333.549,9 334.795,9 L339.69,9 C340.936,9 341.648,9.712 341.648,10.958 L341.648,31.428 C345.297,28.135 350.281,26.088 355.71,26.088 Z M355.621,62.934 C363.275,62.934 369.594,56.704 369.594,49.05 C369.594,41.307 363.275,35.077 355.621,35.077 C347.967,35.077 341.648,41.307 341.648,49.05 C341.648,56.704 347.967,62.934 355.621,62.934 Z" id="bitmob"></path>
                <path d="M37.5,0 C34.2678638,0 31.6476083,2.59558627 31.6476083,5.7979105 C31.6476083,6.32200895 31.7182448,6.82978014 31.849846,7.31250695 L10.0024884,19.8087146 C9.64623304,19.4543229 9.2377074,19.1396771 8.7795651,18.8777143 C5.98032647,17.2766041 2.40132762,18.2268028 0.785102425,20.9999481 C-0.830983104,23.7731626 0.127830063,27.3190168 2.92710361,28.9199195 C3.38412858,29.1812595 3.86196391,29.374454 4.34887759,29.5027892 L4.34887759,54.4968995 C3.86196391,54.6253038 3.38412858,54.8186713 2.92710361,55.0800114 C0.127830063,56.6809832 -0.830983104,60.2268028 0.785102425,62.9999481 C2.4010832,65.7730934 5.98032647,66.7234305 8.7795651,65.1222857 C9.2377074,64.859977 9.64623304,64.5457117 10.0026629,64.1912508 L31.849846,76.6874931 C31.7182448,77.1704274 31.6476083,77.6779565 31.6476083,78.2022625 C31.6476083,81.40431 34.2678638,84 37.5,84 C40.732171,84 43.3524265,81.40431 43.3524265,78.2022625 C43.3524265,77.6769533 43.281371,77.1684557 43.1494207,76.6844836 L64.9953118,64.1893136 C65.3521258,64.544501 65.7613498,64.8597349 66.2203301,65.1222857 C69.0196735,66.7234305 72.5987072,65.7730934 74.2148626,62.9999481 C74.7452825,62.0898412 74.998324,61.0966796 75,60.1162132 L75,60.0969456 C74.9967527,58.0965437 73.9474704,56.1521457 72.0728963,55.0800114 C71.6159063,54.8186713 71.138071,54.6257189 70.6513319,54.4970379 L70.6513319,29.5030313 C71.1377218,29.374454 71.6159063,29.1814671 72.0728963,28.920127 C73.9474704,27.8478889 74.9967527,25.9034563 75,23.9030198 L75,23.8837522 C74.998324,22.9032512 74.7452825,21.9100897 74.2148626,20.9999481 C72.5990215,18.2268028 69.0196735,17.2766041 66.2205396,18.8777143 C65.7615244,19.1402651 65.3523004,19.4555336 64.9954515,19.8106864 L43.1495953,7.31530887 C43.2818249,6.83175186 43.3524265,6.32297752 43.3524265,5.7979105 C43.3524265,2.59558627 40.732171,0 37.5,0 Z M38.5043478,31.4800438 L38.5043478,11.4966697 C39.521412,11.2328407 40.4298418,10.7079138 41.1499509,10 L63,22.3333914 C62.732482,23.2982381 62.7223903,24.3309197 62.9981842,25.3250238 L36.9995984,40 L11.0010825,25.3250238 C11.2765621,24.331978 11.2666799,23.300423 11,22.3362591 L32.8515157,10.0022532 C33.571136,10.7089722 34.4788324,11.2330455 35.494849,11.4966697 L35.494849,31.4800438 C35.494849,32.2891468 36.1720421,32.9513821 36.9995984,32.9513821 C37.8271198,32.9513821 38.5043478,32.2891468 38.5043478,31.4800438 Z M39,72.487892 L39,42.8270205 L65.3220706,28 C66.0721708,28.7367697 67.0014692,29.2492692 68,29.5085892 L68,54.4371202 C67.0027068,54.6959573 66.074646,55.2075598 65.3246871,55.9429496 L47.4002817,45.8464068 C46.674685,45.4375042 45.7379259,45.6822662 45.3187127,46.3902302 C44.8998531,47.0985047 45.1510062,48.0123862 45.8766029,48.4210818 L63.8010437,58.5176591 C63.5226997,59.5210624 63.5332366,60.5633447 63.8038017,61.5372524 L41.6788841,74 C40.9497162,73.2845154 40.0298586,72.7545601 39,72.487892 Z M7,54.4383892 L7,29.5084546 C7.99836129,29.2492256 8.92738359,28.7368051 9.67787831,28 L36,42.8277322 L36,72.4900274 C34.9711946,72.7564668 34.0520728,73.2854816 33.3233946,74 L11.1968301,61.5358262 C11.4666193,60.5629758 11.4770148,59.5215404 11.1988809,58.519124 L29.1237711,48.421924 C29.8496206,48.0129673 30.1003159,47.099594 29.6812057,46.3913889 L29.6809936,46.3911129 C29.2620955,45.6829424 28.3259307,45.4380997 27.6000105,45.8470564 L9.67526175,55.9442909 C8.92536813,55.2088658 7.99712373,54.6972387 7,54.4383892 Z" id="Fill-1" transform="translate(37.500000, 42.000000) scale(1, -1) translate(-37.500000, -42.000000) "></path>
            </g>
        </g>
    </g>
</svg>