<?xml version="1.0" encoding="UTF-8"?> <svg xmlns="http://www.w3.org/2000/svg" xmlns:xlink="http://www.w3.org/1999/xlink" width="38px" height="47px" viewBox="0 0 38 47"><!-- Generator: Sketch 55.2 (78181) - https://sketchapp.com --><title>backend icon</title><desc>Created with Sketch.</desc><g id="tivix.com" stroke="none" stroke-width="1" fill="none" fill-rule="evenodd"><g id="Services" transform="translate(-164.000000, -648.000000)" stroke="#191919" stroke-width="2"><g id="backend-icon" transform="translate(165.000000, 649.000000)"><path d="M0.964503737,6.79778846 C0.964503737,26.264852 0.964503737,36.7394516 0.964503737,38.2215873 C0.964503737,41.6583764 8.59155521,44.4444444 18,44.4444444 C27.4084448,44.4444444 35.0354963,41.6583764 35.0354963,38.2215873 C35.0354963,37.6632157 35.0354963,27.1886161 35.0354963,6.79778846" id="Path" stroke-linecap="round" stroke-linejoin="round"></path><path d="M0.964503737,27.5987302 C0.964503737,31.0355193 8.59155521,33.8215873 18,33.8215873 C27.4084448,33.8215873 35.0354963,31.0355193 35.0354963,27.5987302" id="Path-Copy" stroke-linecap="round" stroke-linejoin="round"></path><path d="M0.964503737,17.415873 C0.964503737,20.8526621 8.59155521,23.6387302 18,23.6387302 C27.4084448,23.6387302 35.0354963,20.8526621 35.0354963,17.415873" id="Path-Copy-2" stroke-linecap="round" stroke-linejoin="round"></path><ellipse id="Oval-Copy-2" stroke-linecap="round" stroke-linejoin="round" cx="18" cy="6" rx="17" ry="6"></ellipse><circle id="Oval" fill="#191919" cx="18" cy="18" r="1"></circle><circle id="Oval-Copy" fill="#191919" cx="18" cy="29" r="1"></circle><circle id="Oval-Copy-3" fill="#191919" cx="18" cy="39" r="1"></circle></g></g></g></svg> 