<?xml version="1.0" encoding="UTF-8"?> <svg xmlns="http://www.w3.org/2000/svg" xmlns:xlink="http://www.w3.org/1999/xlink" width="42px" height="53px" viewBox="0 0 42 53"><!-- Generator: Sketch 55.2 (78181) - https://sketchapp.com --><title>mobile icon</title><desc>Created with Sketch.</desc><g id="tivix.com" stroke="none" stroke-width="1" fill="none" fill-rule="evenodd" stroke-linecap="round" stroke-linejoin="round"><g id="Services" transform="translate(-736.000000, -644.000000)" stroke="#191919" stroke-width="2"><g id="mobile-icon" transform="translate(735.000000, 645.000000)"><path d="M41,29 C39.0292557,20.4499834 37.0641185,14.711482 35.1045884,11.784496" id="Path-16"></path><path d="M5.29988455,24.1687487 C3.62570192,24.3605529 2.32899376,25.7827181 2.33258013,27.5114572 C2.33645875,29.3736049 3.84760104,30.8863121 5.70781836,30.8901832 C8.13797806,31.1465679 9.96059783,31.3388563 11.1756777,31.4670487" id="Path-Copy-4" transform="translate(6.754129, 27.817899) rotate(38.000000) translate(-6.754129, -27.817899) "></path><path d="M4.61137273,10.4854103 C3.13891018,11.0209384 1.84493291,12.525655 1.84812438,14.0182562 C1.85211754,15.8795779 3.92314006,17.5461982 5.78418333,17.5501854 C8.50674111,17.837334 10.5486594,18.0526955 11.9099383,18.1962698" id="Path-Copy-5" transform="translate(6.879031, 14.340840) rotate(44.000000) translate(-6.879031, -14.340840) "></path><path d="M25.8882344,46 C22.3930712,46 17.1503264,46 10.16,46 C8.96706494,46 8,45.0192904 8,43.8095238 L8,2.19047619 C8,0.980709596 8.96706494,0 10.16,0 L32.84,0 C34.0329351,0 35,0.980709596 35,2.19047619 C35,11.4098567 35,18.3243921 35,22.9340823" id="Path"></path><path d="M13,0 L13.7193013,0 C14.8238708,1.91384796e-17 15.7193013,0.8954305 15.7193013,2 L15.7193013,2 L27.2297766,2 C27.2297766,0.8954305 28.1252071,2.02906125e-16 29.2297766,0 L30,0 L13,0 Z" id="Path-12" fill="#191919"></path><path d="M47.0071119,41.282349 C41.820961,33.0788139 33.3943854,29.2801469 21.727385,29.886348 C19.8662025,29.8823583 18.3606502,31.3879106 18.364632,33.2490931 C18.3686296,35.1102756 19.8806504,36.6222964 21.7418329,36.6262861 C29.5894006,36.2354907 34.3822137,39.6806813 36.1202723,46.961858" id="Path" transform="translate(32.685872, 38.392818) rotate(45.000000) translate(-32.685872, -38.392818) "></path><path d="M15.9825058,47 L15.9825058,49.7984416" id="Line-3"></path></g></g></g></svg> 