<?xml version="1.0" encoding="UTF-8"?> <svg xmlns="http://www.w3.org/2000/svg" xmlns:xlink="http://www.w3.org/1999/xlink" width="52px" height="47px" viewBox="0 0 52 47"><!-- Generator: Sketch 55.2 (78181) - https://sketchapp.com --><title>product icon</title><desc>Created with Sketch.</desc><g id="tivix.com" stroke="none" stroke-width="1" fill="none" fill-rule="evenodd"><g id="Services" transform="translate(-1021.000000, -648.000000)" stroke="#191919" stroke-width="2"><g id="product-icon" transform="translate(1022.000000, 649.000000)"><path d="M21.4951308,35 L21.4951308,31.031395 C27.624828,28.7899041 32,22.9058901 32,16 C32,7.163444 24.836556,0 16,0 C7.163444,0 0,7.163444 0,16 C0,22.9258435 4.40049116,28.8238973 10.5580452,31.0507329 L10.5580452,35" id="Shape" stroke-linecap="round" stroke-linejoin="round"></path><rect id="Rectangle-Copy-9" stroke-linejoin="round" x="8" y="35" width="16" height="5" rx="2.5"></rect><rect id="Rectangle-Copy-12" stroke-linejoin="round" x="8" y="40" width="16" height="5" rx="2.5"></rect><circle id="Oval" cx="16" cy="16" r="4"></circle><path d="M16,20 L16,34.5" id="Line-2" stroke-linecap="square"></path><path d="M45.3867972,18 L46.8975472,18 C47.615557,18.000009 48.2328723,18.5088301 48.3699491,19.2136336 C48.6824049,20.8201791 48.8386329,22.8531346 48.8386329,25.3125 C48.8386329,28.329144 48.3974954,34.543902 47.5152204,43.9567741 C47.4597839,44.5480427 46.9634833,45 46.3696216,45 C45.7696182,45 45.2625302,44.5553207 45.1841921,43.9604533 C44.0613974,35.435647 43.5,29.2014126 43.5,25.2577502 C43.5,22.4213618 43.6417651,20.3895572 43.9252954,19.1623364 C44.0825013,18.4819213 44.6884574,18 45.3867972,18 Z" id="Rectangle"></path><path d="M45.3449493,17.1751616 C41.4443686,15.6253149 40.610977,13.4675801 42.8447747,10.7019573 C45.0785723,7.93633445 45.291912,5.10263957 43.4847938,2.20087264 C49.83214,5.43497184 51.3123067,10.4264015 47.9252939,17.1751616" id="Path-15" stroke-linecap="round" stroke-linejoin="round" transform="translate(45.658834, 9.688017) rotate(3.000000) translate(-45.658834, -9.688017) "></path></g></g></g></svg> 